<svg width="192" height="170" viewBox="0 0 192 170" fill="none" xmlns="http://www.w3.org/2000/svg">
<path d="M97.4784 17.2397L103.854 28.2104L110.907 23.2014L97.4784 0L65.2322 55.714L82.2023 43.637L97.4784 17.2397Z" fill="url(#paint0_linear_1_703)"/>
<path d="M142.013 76.9793H52.9127L61.9984 61.3069L75.519 55.1608L67.8809 68.3749H127.045L110.26 39.3655L118.144 35.77L141.982 76.9793H142.013ZM53.2515 141.974V128.391H58.1793V123.536H42.6876V128.391H47.6462V141.974H53.2515ZM78.0137 141.974V123.536H72.4083V130.051H65.7866V123.536H60.1812V141.974H65.7866V134.906H72.4083V141.974H78.0137ZM97.54 141.974L94.183 135.459C95.6613 134.752 97.5092 133.062 97.5092 129.866C97.5092 126.424 95.1685 123.536 90.8567 123.536H80.9703V141.974H86.5757V136.166H88.6084L91.1647 141.974H97.54ZM89.9943 131.31H86.5757V128.391H89.9943C90.9491 128.391 91.8114 128.821 91.8114 129.835C91.8114 130.85 90.9183 131.31 89.9943 131.31ZM113.802 141.974V137.119H105.363V135.09H113.586V130.235H105.363V128.422H113.802V123.566H99.7883V142.005H113.802V141.974ZM134.991 141.974L128.185 123.536H121.132L114.325 141.974H120.67L121.347 139.823H128L128.677 141.974H135.022H134.991ZM126.491 134.937H122.826L124.643 128.975L126.46 134.937H126.491ZM143.892 141.974V128.391H148.82V123.536H133.328V128.391H138.287V141.974H143.892ZM5.8524 169.631V151.193H0.24707V169.631H5.8524ZM26.6415 169.631V151.193H21.0362V159.92L14.5993 151.193H8.83987V169.631H14.4452V160.289L21.2517 169.631H26.6415ZM39.2073 169.631V156.048H44.1351V151.193H28.6434V156.048H33.602V169.631H39.2073ZM60.1504 169.631V164.776H51.7116V162.748H59.9348V157.892H51.7116V156.079H60.1504V151.224H46.137V169.662H60.1504V169.631ZM75.2726 169.631V164.776H68.2505V151.193H62.6451V169.631H75.2726ZM90.1175 169.631V164.776H83.0954V151.193H77.4901V169.631H90.1175ZM97.9712 169.631V151.193H92.3658V169.631H97.9712ZM110.137 169.969C113.771 169.969 116.543 168.494 118.606 166.22V158.66H109.582V163.516H113.032V164.192C112.447 164.622 111.215 165.022 110.137 165.022C107.457 165.022 105.64 162.963 105.64 160.412C105.64 157.861 107.426 155.803 110.137 155.803C111.8 155.803 113.032 156.97 113.555 158.107L118.267 155.71C117.097 153.344 114.541 150.886 110.137 150.886C104.531 150.886 99.9731 154.512 99.9731 160.443C99.9731 166.374 104.562 170 110.137 170V169.969ZM135.114 169.631V164.776H126.676V162.748H134.899V157.892H126.676V156.079H135.114V151.224H121.101V169.662H135.114V169.631ZM155.411 169.631V151.193H149.805V159.92L143.368 151.193H137.609V169.631H143.214V160.289L150.021 169.631H155.411ZM167.576 169.969C172.442 169.969 174.906 167.019 175.984 164.561L171.149 162.348C170.687 163.792 169.239 165.022 167.576 165.022C164.897 165.022 163.08 162.963 163.08 160.412C163.08 157.861 164.866 155.803 167.576 155.803C169.239 155.803 170.687 157.032 171.149 158.476L175.984 156.233C174.875 153.682 172.442 150.855 167.576 150.855C161.786 150.855 157.413 154.696 157.413 160.412C157.413 166.128 161.786 169.969 167.576 169.969ZM191.753 169.631V164.776H183.314V162.748H191.537V157.892H183.314V156.079H191.753V151.224H177.74V169.662H191.753V169.631ZM105.517 99.1051C105.517 102.824 102.16 105.497 97.5092 105.497H90.0867L91.9654 102.27H97.5092C100.281 102.27 102.283 100.949 102.283 99.1051C102.283 97.2613 100.281 95.9399 97.5092 95.9399H87.1609V113.364H83.927V92.6825H97.54C102.191 92.6825 105.548 95.3561 105.548 99.0744L105.517 99.1051ZM45.0283 113.364H41.7944V92.6825H60.0888V95.9092H45.0283V113.333V113.364ZM59.8424 113.364H56.085L68.8048 91.2689L81.4939 113.364H77.7673L74.9954 108.539H62.6451L59.8733 113.364H59.8424ZM64.4622 105.282H73.0859L68.7741 97.7837L64.4622 105.282ZM102.868 113.364L115.526 91.2996L128.339 113.364H110.414L112.262 110.137H122.702L115.557 97.7837L106.595 113.364H102.868ZM135.977 108.539L133.205 113.364H129.478L142.167 91.2689L154.887 113.364H151.13L148.358 108.539H136.008H135.977ZM137.825 105.282H146.448L142.136 97.7837L137.825 105.282Z" fill="white"/>
<defs>
<linearGradient id="paint0_linear_1_703" x1="65.2322" y1="55.714" x2="119.864" y2="10.9266" gradientUnits="userSpaceOnUse">
<stop stop-color="#5CCDFF"/>
<stop offset="0.825" stop-color="#C478FF"/>
</linearGradient>
</defs>
</svg>
