<svg width="250" height="100" viewBox="0 0 250 100" fill="none" xmlns="http://www.w3.org/2000/svg">
<path d="M47.9253 39.3352L51.4177 33.2757L57.6764 22.4031L64.1425 11.2188L57.6764 0L17.7732 69.2521L38.0706 56.4405L47.9253 39.3352Z" fill="url(#paint0_linear_1_673)"/>
<path d="M236.411 82.7215V64.7852H250V69.529H241.84V71.2949H249.827V76.0386H241.84V78.0123H250V82.7561H236.411V82.7215Z" fill="white"/>
<path d="M115.318 99.9999H0L13.9004 75.9002L30.2904 69.9099L19.3983 88.7811H108.852L115.318 99.9999ZM73.7898 60.2146V47.0221H78.5616V42.2783H63.5546V47.0221H68.361V60.2146H73.7898ZM97.7524 60.2146V42.2783H92.3237V48.6148H85.8921V42.2783H80.4633V60.2146H85.8921V53.3586H92.3237V60.2146H97.7524ZM116.701 60.2146L113.451 53.878C114.869 53.1855 116.667 51.5234 116.667 48.4417C116.667 45.083 114.419 42.2783 110.235 42.2783H100.657V60.2146H106.086V54.5705H108.057L110.512 60.2146H116.701ZM109.371 49.8268H106.051V46.9874H109.371C110.27 46.9874 111.134 47.403 111.134 48.3725C111.134 49.342 110.27 49.7921 109.371 49.7921V49.8268ZM132.434 60.2146V55.4708H124.274V53.4971H132.261V48.7534H124.274V46.9874H132.434V42.2437H118.845V60.1799H132.434V60.2146ZM152.974 60.2146L146.369 42.2783H139.557L132.953 60.2146H139.108L139.765 58.1024H146.196L146.853 60.2146H153.008H152.974ZM144.71 53.3586H141.148L142.911 47.576L144.675 53.3586H144.71ZM161.584 60.2146V47.0221H166.355V42.2783H151.349V47.0221H156.155V60.2146H161.584ZM69.9516 82.7215V64.7852H64.5228V82.7215H69.9516ZM90.076 82.7215V64.7852H84.6473V73.2686L78.4232 64.7852H72.8216V82.7215H78.2503V73.6495L84.8548 82.7215H90.076ZM102.248 82.7215V69.529H107.019V64.7852H92.0125V69.529H96.8188V82.7215H102.248ZM122.545 82.7215V77.9777H114.384V76.0041H122.372V71.2603H114.384V69.4944H122.545V64.7506H108.956V82.6869H122.545V82.7215ZM137.172 82.7215V77.9777H130.394V64.7852H124.965V82.7215H137.172ZM151.556 82.7215V77.9777H144.779V64.7852H139.35V82.7215H151.556ZM159.163 82.7215V64.7852H153.734V82.7215H159.163ZM170.954 83.0332C174.481 83.0332 177.144 81.6135 179.149 79.3974V72.0567H170.436V76.8005H173.755V77.4584C173.202 77.8739 171.992 78.2547 170.954 78.2547C168.361 78.2547 166.598 76.2465 166.598 73.7534C166.598 71.2603 168.326 69.252 170.954 69.252C172.58 69.252 173.755 70.3946 174.274 71.5027L178.838 69.1481C177.697 66.8282 175.242 64.4736 170.954 64.4736C165.526 64.4736 161.1 68.0055 161.1 73.7534C161.1 79.5013 165.526 83.0332 170.954 83.0332ZM195.159 82.7215V77.9777H186.999V76.0041H194.986V71.2603H186.999V69.4944H195.159V64.7506H181.57V82.6869H195.159V82.7215ZM214.799 82.7215V64.7852H209.371V73.2686L203.147 64.7852H197.545V82.7215H202.974V73.6495L209.578 82.7215H214.799ZM226.591 83.0332C231.293 83.0332 233.679 80.1938 234.716 77.8046L230.048 75.6578C229.599 77.0428 228.181 78.2547 226.591 78.2547C223.997 78.2547 222.234 76.2465 222.234 73.7534C222.234 71.2603 223.963 69.252 226.591 69.252C228.216 69.252 229.599 70.4639 230.048 71.8489L234.716 69.6675C233.645 67.209 231.293 64.439 226.591 64.439C220.989 64.439 216.736 68.1786 216.736 73.7187C216.736 79.2589 220.989 82.9986 226.591 82.9986V83.0332ZM119.225 23.8226C119.225 27.0428 116.321 29.3628 112.31 29.3628H105.913L107.538 26.558H112.31C114.696 26.558 116.425 25.4154 116.425 23.8226C116.425 22.2298 114.696 21.0871 112.31 21.0871H103.389V36.1495H100.588V18.2824H112.31C116.321 18.2824 119.225 20.6023 119.225 23.8226ZM67.0816 36.1495H64.2808V18.2824H80.0484V21.0871H67.0816V36.1495ZM79.8409 36.1495H76.6251L87.5864 17.0359L98.5131 36.1495H95.2974L92.9115 31.9943H82.2614L79.8755 36.1495H79.8409ZM83.852 29.155H91.2863L87.5864 22.6453L83.8866 29.155H83.852ZM116.909 36.1495L127.835 17.0705L138.866 36.1495H123.409L125 33.3447H133.99L127.835 22.6799L120.124 36.1495H116.909ZM145.47 31.9597L143.084 36.1148H139.869L150.795 17.0012L161.757 36.1148H158.541L156.155 31.9597H145.505H145.47ZM147.061 29.155H154.495L150.795 22.6799L147.095 29.155H147.061Z" fill="white"/>
<defs>
<linearGradient id="paint0_linear_1_673" x1="17.7732" y1="69.2521" x2="81.8047" y2="26.3784" gradientUnits="userSpaceOnUse">
<stop stop-color="#5CCDFF"/>
<stop offset="0.825" stop-color="#C478FF"/>
</linearGradient>
</defs>
</svg>
