<?xml version="1.0" encoding="UTF-8"?><svg id="_Лицо" xmlns="http://www.w3.org/2000/svg" xmlns:xlink="http://www.w3.org/1999/xlink" viewBox="0 0 595.28 841.89"><defs><style>.cls-1{clip-path:url(#clippath);}.cls-2{fill:none;}.cls-2,.cls-3,.cls-4,.cls-5,.cls-6,.cls-7{stroke-width:0px;}.cls-3{fill:url(#linear-gradient);}.cls-4{fill:url(#radial-gradient);}.cls-8{clip-path:url(#clippath-1);}.cls-5{fill:url(#linear-gradient-2);}.cls-6{fill:#292c42;}.cls-7{fill:#fff;}</style><clipPath id="clippath"><rect class="cls-2" x="0" y="0" width="595.28" height="841.89"/></clipPath><linearGradient id="linear-gradient" x1="180.76" y1="633.13" x2="272.55" y2="809.71" gradientUnits="userSpaceOnUse"><stop offset="0" stop-color="#1cbaff"/><stop offset="1" stop-color="#b657ff"/></linearGradient><linearGradient id="linear-gradient-2" x1="530.51" y1="273.09" x2="663.19" y2="142.4" xlink:href="#linear-gradient"/><clipPath id="clippath-1"><rect class="cls-2" x="196.23" y="416.9" width="399.05" height="424.99"/></clipPath><radialGradient id="radial-gradient" cx="435.59" cy="438.44" fx="435.59" fy="438.44" r="321.1" gradientUnits="userSpaceOnUse"><stop offset="0" stop-color="#006cae" stop-opacity=".5"/><stop offset="1" stop-color="#006cae" stop-opacity="0"/></radialGradient></defs><g class="cls-1"><polygon class="cls-3" points="289.27 606.14 153.16 841.89 425.38 841.89 289.27 606.14"/><polygon class="cls-5" points="614.73 41.46 505.29 231.01 724.17 231.01 614.73 41.46 614.73 41.46"/><polygon class="cls-7" points="571.83 176.14 462.4 365.69 681.27 365.69 571.83 176.14 571.83 176.14"/><polygon class="cls-6" points="645.66 615.1 755.09 425.55 536.22 425.55 645.66 615.1 645.66 615.1"/><g class="cls-8"><polygon class="cls-6" points="435.59 447.09 205.58 845.47 665.6 845.47 435.59 447.09"/><polygon class="cls-4" points="435.59 447.09 205.58 845.47 665.6 845.47 435.59 447.09"/></g><path class="cls-6" d="M719.91,11.26l181.51,314.38h-363.02L719.91,11.26M719.91-44.74l-230.01,398.38h460.01L719.91-44.74h0Z"/></g></svg>